<svg width="24" height="24" viewBox="0 0 24 24" fill="none" xmlns="http://www.w3.org/2000/svg">
<path d="M9.28111 0.535889C9.80557 0.498534 10.2933 0.686919 10.6659 1.05933L10.6835 1.0769L10.6942 1.09839C10.6947 1.09936 10.6956 1.10032 10.6962 1.10132C11.0066 0.765098 11.4751 0.535931 11.9999 0.535889C12.4256 0.535889 12.8207 0.679633 13.159 0.937256L13.3006 1.05444L13.3212 1.073L13.3338 1.09839C13.3344 1.09944 13.3361 1.10023 13.3368 1.10132C13.6473 0.765237 14.1158 0.535889 14.6405 0.535889C15.1256 0.536012 15.5752 0.722622 15.912 1.05933C16.2488 1.39618 16.4354 1.84651 16.4354 2.33179V4.5603C16.4353 5.11103 16.2533 5.63594 15.9344 6.05151C16.6675 6.20025 17.2243 6.88012 17.2245 7.64526C17.2245 8.1807 16.9315 8.681 16.5028 8.97339C17.473 9.84451 18.4718 10.8918 19.2919 11.9373C20.1517 13.0335 20.8283 14.1421 21.0594 15.0476C21.5504 16.9412 21.2003 18.7398 20.037 20.1853L20.036 20.1843C18.4212 22.2542 15.4911 23.4304 11.9999 23.4304C8.50779 23.4304 5.57633 22.2542 3.96178 20.1833C2.80047 18.705 2.44916 16.942 2.94029 15.0476C3.15482 14.1576 3.83252 13.0574 4.69518 11.9587C5.51999 10.9083 6.52709 9.84399 7.49791 8.94214C7.06975 8.6566 6.77525 8.17872 6.77525 7.61108C6.77542 6.83771 7.34052 6.18968 8.07115 6.02612C7.74828 5.6093 7.56441 5.08048 7.56432 4.52612V2.40015C7.56432 1.40221 8.30478 0.576911 9.28111 0.536865V0.535889ZM8.661 9.27026C7.63461 10.1334 6.54436 11.2341 5.65807 12.322C4.75547 13.4299 4.07979 14.5053 3.88268 15.2937L3.8817 15.2976C3.44859 16.864 3.74854 18.3574 4.71275 19.5876C6.14915 21.4248 8.77112 22.4782 11.9999 22.4783C15.2276 22.4783 17.8493 21.4256 19.286 19.5896C20.2165 18.36 20.5179 16.8993 20.1522 15.2966L20.1063 15.1453C19.8515 14.3718 19.1967 13.3608 18.3504 12.322C17.4642 11.2342 16.3826 10.1334 15.3729 9.27026H8.661ZM8.40025 7.00757C8.03753 7.00757 7.7618 7.28261 7.76158 7.64526C7.76158 8.00814 8.03738 8.28394 8.40025 8.28394H15.6004C15.9631 8.28371 16.2381 8.00799 16.2381 7.64526C16.2379 7.28276 15.963 7.00779 15.6004 7.00757H8.40025ZM9.25572 1.53003C8.86141 1.5968 8.54967 1.95589 8.54967 2.40015V4.52612C8.54989 5.33451 9.20314 5.98706 10.0116 5.98706H13.954C14.7624 5.98706 15.4157 5.33451 15.4159 4.52612V2.33179C15.4159 2.12751 15.326 1.89226 15.1854 1.75171C15.043 1.6093 14.8411 1.52124 14.6053 1.52124C14.1705 1.52145 13.7958 1.86967 13.7958 2.33179C13.7956 2.62971 13.5469 2.82397 13.3026 2.82397C13.0584 2.82383 12.8106 2.62961 12.8104 2.33179C12.8104 2.12756 12.7204 1.89227 12.5799 1.75171C12.4375 1.6093 12.2356 1.52124 11.9999 1.52124C11.5377 1.52132 11.1903 1.89688 11.1903 2.33179C11.1901 2.62971 10.9414 2.82397 10.6971 2.82397C10.4529 2.82396 10.2042 2.62971 10.204 2.33179C10.204 2.12751 10.114 1.89226 9.9735 1.75171C9.83112 1.60946 9.62998 1.52127 9.39439 1.52124H9.3358L9.25572 1.53003Z" fill="#999999" stroke="#999999" stroke-width="0.3"/>
<path d="M12.0339 11.4039C12.5369 11.4039 13.0344 11.7111 13.2653 12.1725L13.8806 13.4049L15.2438 13.6002H15.2458C15.7467 13.6773 16.2054 14.0595 16.36 14.5612C16.5127 15.0572 16.3985 15.5959 16.0143 15.9801L16.0134 15.9821L15.0065 16.9547L15.2341 18.318C15.3473 18.8265 15.1115 19.3611 14.694 19.6647C14.2703 19.9727 13.6959 20.0098 13.236 19.7799L13.2331 19.7789L11.9997 19.1285L10.7673 19.7789L10.7663 19.778C10.5643 19.8966 10.3313 19.9332 10.114 19.9332C9.85221 19.9332 9.54497 19.8588 9.30634 19.6637V19.6647C8.88005 19.3546 8.68978 18.8513 8.76532 18.3219L8.76727 18.3112L9.05829 16.9518L8.05536 15.9821L8.05438 15.9801C7.67022 15.5959 7.55508 15.0572 7.7077 14.5612C7.86271 14.0232 8.29042 13.6766 8.82489 13.6002L10.1872 13.4049L10.8034 12.1725C11.0343 11.7113 11.531 11.4041 12.0339 11.4039ZM11.9997 12.3903C11.8536 12.3904 11.7324 12.458 11.654 12.6139L10.9352 14.0885L10.9235 14.111L10.9059 14.1285C10.8729 14.1615 10.8224 14.2132 10.7643 14.2555C10.7125 14.2932 10.6364 14.3353 10.5466 14.3414L10.5475 14.3424L8.90399 14.5817C8.76092 14.6058 8.62741 14.7335 8.57391 14.8668C8.55452 14.9153 8.55107 14.9848 8.57098 15.0612C8.59073 15.1366 8.62994 15.2059 8.67743 15.2535H8.67645L9.87567 16.4186L9.87762 16.4196C9.92723 16.4692 9.97296 16.5385 10.0016 16.6129C10.0274 16.6798 10.0437 16.7684 10.0212 16.858L10.0222 16.859L9.74774 18.4713C9.72276 18.623 9.77152 18.7683 9.89032 18.8688C10.0258 18.9478 10.174 18.9681 10.322 18.8942L11.7849 18.1451C11.8545 18.1 11.933 18.0729 12.0173 18.0729C12.1013 18.0729 12.1793 18.1002 12.2487 18.1451L13.7116 18.8942H13.7126C13.8796 18.9777 14.0197 18.9691 14.1345 18.8776C14.2602 18.777 14.3124 18.627 14.2868 18.4713L14.0124 16.859L14.0104 16.8473V16.8346C14.0104 16.7681 14.0212 16.6926 14.0427 16.6227C14.0635 16.555 14.0987 16.4778 14.1569 16.4196L15.3229 15.2535C15.3704 15.2059 15.4097 15.1365 15.4294 15.0612C15.4493 14.9848 15.4458 14.9153 15.4265 14.8668L15.4235 14.859C15.3734 14.7087 15.2491 14.6083 15.0954 14.5826V14.5817L13.4577 14.3424C13.284 14.337 13.1276 14.2487 13.0651 14.0885L12.3454 12.6149L12.3405 12.6051L12.3376 12.5963C12.2956 12.4704 12.1628 12.3903 11.9997 12.3903Z" fill="#999999" stroke="#999999" stroke-width="0.3"/>
</svg>
