<svg width="26" height="26" viewBox="0 0 26 26" fill="none" xmlns="http://www.w3.org/2000/svg">
<g opacity="0.4">
<rect opacity="0.01" x="0.75" y="0.75" width="24.0824" height="24.0824" fill="#D8D8D8" stroke="#979797" stroke-width="1.5"/>
<path d="M10.6595 5.32961H23.4507" stroke="black" stroke-width="1.5" stroke-linecap="round" stroke-linejoin="round"/>
<path fill-rule="evenodd" clip-rule="evenodd" d="M6.39575 5.32961C6.39575 4.44702 5.67945 3.73071 4.79685 3.73071C3.91426 3.73071 3.19795 4.44702 3.19795 5.32961C3.19795 6.21221 3.91426 6.92852 4.79685 6.92852C5.67945 6.92852 6.39575 6.21221 6.39575 5.32961Z" stroke="black" stroke-width="1.5" stroke-linecap="round" stroke-linejoin="round"/>
<path d="M10.6594 12.7912H23.4506" stroke="black" stroke-width="1.5" stroke-linecap="round" stroke-linejoin="round"/>
<path fill-rule="evenodd" clip-rule="evenodd" d="M6.39571 12.7912C6.39571 11.9086 5.6794 11.1923 4.79681 11.1923C3.91421 11.1923 3.19791 11.9086 3.19791 12.7912C3.19791 13.6738 3.91421 14.3901 4.79681 14.3901C5.6794 14.3901 6.39571 13.6738 6.39571 12.7912Z" stroke="black" stroke-width="1.5" stroke-linecap="round" stroke-linejoin="round"/>
<path d="M10.6594 20.2527H23.4506" stroke="black" stroke-width="1.5" stroke-linecap="round" stroke-linejoin="round"/>
<path fill-rule="evenodd" clip-rule="evenodd" d="M6.39571 20.2527C6.39571 19.3701 5.6794 18.6538 4.79681 18.6538C3.91421 18.6538 3.19791 19.3701 3.19791 20.2527C3.19791 21.1353 3.91421 21.8516 4.79681 21.8516C5.6794 21.8516 6.39571 21.1353 6.39571 20.2527Z" stroke="black" stroke-width="1.5" stroke-linecap="round" stroke-linejoin="round"/>
</g>
</svg>
